<svg width="200" height="200" viewBox="0 0 200 200" stroke="#5a0c25" fill="none" stroke-width="2.5" stroke-linecap="round" stroke-linejoin="round"  xmlns="http://www.w3.org/2000/svg">
    <path fill="#fec76a" stroke="none" transform="translate(-10,-10)" d="M95.659 45.096c10.906-5.57 17.681-6.765 22.512-4.541 2.519 1.16 4.701 3.33 6.733 6.723 2.037 3.402 3.862 7.934 5.705 13.67l.268.836.86.175c8.968 1.835 15.561 3.777 20.123 5.957 4.581 2.19 6.857 4.495 7.647 6.916.788 2.414.247 5.398-1.917 9.31-2.151 3.89-5.765 8.44-10.672 13.845-7.089 6.954-12.872 10.766-19.394 11.904-6.559 1.145-14.138-.364-24.925-4.718l-.879-.354-.698.641c-10.947 10.067-15.912 17.851-16.614 25.527-.658 7.203 2.49 13.959 6.973 21.858-5.858 2.649-10.842 4.63-15.065 5.771-4.598 1.243-8.102 1.436-10.774.584-2.579-.822-4.608-2.694-6.13-6.152-1.509-3.425-2.476-8.323-2.918-15.041 3.502-4.864 6.061-9.144 7.469-12.995 1.46-3.992 1.72-7.639.395-11.021-1.313-3.351-4.086-6.193-8.174-8.798-3.813-2.431-8.885-4.728-15.271-7.069 2.283-6.296 4.637-10.983 7.169-14.243 2.693-3.469 5.524-5.249 8.65-5.724 3.173-.482 6.905.34 11.45 2.615 4.541 2.27 9.754 5.918 15.832 10.88l.673.55.812-.311c12.293-4.704 19.509-9.902 20.872-17.829.67-3.9-.128-8.243-2.107-13.179-1.839-4.588-4.743-9.795-8.605-15.787Z"/><path d="M95.659 45.096c10.906-5.57 17.681-6.765 22.512-4.541 2.519 1.16 4.701 3.33 6.733 6.723 2.037 3.402 3.862 7.934 5.705 13.67l.268.836.86.175c8.968 1.835 15.561 3.777 20.123 5.957 4.581 2.19 6.857 4.495 7.647 6.916.788 2.414.247 5.398-1.917 9.31-2.151 3.89-5.765 8.44-10.672 13.845-7.089 6.954-12.872 10.766-19.394 11.904-6.559 1.145-14.138-.364-24.925-4.718l-.879-.354-.698.641c-10.947 10.067-15.912 17.851-16.614 25.527-.658 7.203 2.49 13.959 6.973 21.858-5.858 2.649-10.842 4.63-15.065 5.771-4.598 1.243-8.102 1.436-10.774.584-2.579-.822-4.608-2.694-6.13-6.152-1.509-3.425-2.476-8.323-2.918-15.041 3.502-4.864 6.061-9.144 7.469-12.995 1.46-3.992 1.72-7.639.395-11.021-1.313-3.351-4.086-6.193-8.174-8.798-3.813-2.431-8.885-4.728-15.271-7.069 2.283-6.296 4.637-10.983 7.169-14.243 2.693-3.469 5.524-5.249 8.65-5.724 3.173-.482 6.905.34 11.45 2.615 4.541 2.27 9.754 5.918 15.832 10.88l.673.55.812-.311c12.293-4.704 19.509-9.902 20.872-17.829.67-3.9-.128-8.243-2.107-13.179-1.839-4.588-4.743-9.795-8.605-15.787Z"/>
</svg>