<svg width="200" height="200" viewBox="0 0 200 200" stroke="#5a0c25" fill="none" stroke-width="2.5" stroke-linecap="round" stroke-linejoin="round"  xmlns="http://www.w3.org/2000/svg">
    <path fill="#fec76a" stroke="none" transform="translate(-10,-10)" d="M69.537 60.65c12.216 6.473 27.85-.33 30.963-14.358 3.112 14.027 18.747 20.83 30.963 14.358l-3.787 7.45c-6.144 12.089.301 26.777 13.357 30.441l3.416.959-3.416.959c-13.056 3.664-19.501 18.352-13.357 30.441l3.787 7.45c-12.216-6.473-27.851.331-30.963 14.358-3.112-14.027-18.747-20.831-30.963-14.357l3.787-7.451c6.144-12.089-.3-26.777-13.357-30.441l-3.416-.959 3.416-.959C73.023 94.877 79.468 80.19 73.324 68.1l-3.787-7.45Z"/><path d="M69.537 60.65c12.216 6.473 27.85-.33 30.963-14.358 3.112 14.027 18.747 20.83 30.963 14.358l-3.787 7.45c-6.144 12.089.301 26.777 13.357 30.441l3.416.959-3.416.959c-13.056 3.664-19.501 18.352-13.357 30.441l3.787 7.45c-12.216-6.473-27.851.331-30.963 14.358-3.112-14.027-18.747-20.831-30.963-14.357l3.787-7.451c6.144-12.089-.3-26.777-13.357-30.441l-3.416-.959 3.416-.959C73.023 94.877 79.468 80.19 73.324 68.1l-3.787-7.45Z"/>
</svg>